<svg viewBox="0 0 764 652" version="1.1" xmlns="http://www.w3.org/2000/svg">
  <defs>
    <path
      d="
        M 102.922 1.552
        C 37.386 13.419 -8.451 77.357 1.457 143.084
        C 5.532 170.119 17.954 193.724 50 226.253
        L 50 226.253
        L 50 628.681
        A 23.319 23.319 0 0 0 73.319 652
        L 329.98 652
        A 30 30 0 0 0 329.98 592
        L 110 592
        L 110 398.178
        C 110 178.509 110.818 198.709 101.55 189.568
        C 98.724 186.78 93.157 181.887 89.18 178.692
        C 69.617 162.981 60.152 143.555 61.315 121.5
        C 62.205 104.62 67.91 92.112 80.496 79.443
        C 93.245 66.611 106.207 60.986 122.96 61.015
        C 134.174 61.034 142.508 63.071 153.5 68.477
        C 167.244 75.237 169.894 76.126 178.062 76.715
        C 186.737 77.34 191.932 75.633 198.26 70.076
        C 209.225 60.449 210.713 40.562 201.387 28.277
        C 194.043 18.605 165.166 5.401 143.074 1.615
        C 131.764 -0.323 113.434 -0.352 102.922 1.552"
      stroke="none"
      id="side"
    />
  </defs>
  <use href="#side" />
  <use href="#side" transform="scale(-1, 1) translate(-764, 0)" />
  <rect
    x="232.592"
    y="18.044"
    width="298.816"
    height="58.912"
    rx="29.456"
    stroke="none"
  />
</svg>
